<svg width="22" height="22" viewBox="0 0 22 22" fill="none" xmlns="http://www.w3.org/2000/svg">
<path d="M8.6 4C8.77584 3.99999 8.94678 4.05961 9.0864 4.16965L9.1664 4.24129L11.3312 6.47059H16.6C17.2122 6.47055 17.8012 6.71133 18.2466 7.14365C18.692 7.57596 18.9601 8.16715 18.996 8.79624L19 8.94118V15.5294C19 16.1596 18.7661 16.766 18.3462 17.2244C17.9262 17.6829 17.3519 17.9589 16.7408 17.9959L16.6 18H5.4C4.78783 18 4.19879 17.7593 3.75339 17.3269C3.30799 16.8946 3.03991 16.3034 3.004 15.6744L3 15.5294V6.47059C2.99997 5.84041 3.23386 5.23405 3.65383 4.77555C4.07379 4.31705 4.64809 4.04109 5.2592 4.00412L5.4 4H8.6Z" fill="#A9C1FF"/>
</svg>
