<svg width="14" height="14" viewBox="0 0 14 14" fill="none" xmlns="http://www.w3.org/2000/svg">
<path d="M9 1C11.2091 1 13 2.79086 13 5V9C13 11.2091 11.2091 13 9 13H5C2.79086 13 1 11.2091 1 9V5C1 2.79086 2.79086 1 5 1H9ZM8.99902 4.71973C8.63256 4.01137 7.61436 4.02497 7.26758 4.74316L6.16309 7.03027L5.75195 6.46191C5.35781 5.91779 4.54233 5.93071 4.16602 6.4873L3.02051 8.18164C2.58677 8.82411 3.04717 9.6908 3.82227 9.69141H6.19434C6.2324 9.69141 6.27019 9.68764 6.30664 9.68359C6.34384 9.68788 6.38216 9.69137 6.4209 9.69141H9.98047C10.7057 9.69141 11.173 8.92347 10.8398 8.2793L8.99902 4.71973Z" fill="#9494A0"/>
</svg>
